<svg id="svg" version="1.1" xmlns="http://www.w3.org/2000/svg" xmlns:xlink="http://www.w3.org/1999/xlink" width="400" height="400" viewBox="0, 0, 400,400"><g id="svgg"><path id="path0" d="M254.859 39.611 C 253.573 39.857,252.885 41.298,252.885 43.751 C 252.885 44.934,252.538 46.800,252.024 48.373 C 251.550 49.824,251.163 51.395,251.163 51.862 C 251.163 52.330,250.999 52.713,250.798 52.713 C 250.597 52.713,250.518 52.850,250.622 53.018 C 250.725 53.186,250.642 53.806,250.436 54.396 C 250.097 55.368,249.763 55.629,249.009 55.510 C 248.867 55.488,248.751 55.636,248.751 55.839 C 248.751 56.064,248.100 56.175,247.096 56.122 C 246.186 56.073,245.295 56.125,245.115 56.235 C 244.936 56.346,243.471 56.448,241.860 56.462 L 238.932 56.487 237.282 58.304 C 234.588 61.271,234.494 61.455,235.096 62.592 C 235.586 63.519,237.748 65.461,238.288 65.461 C 238.428 65.461,238.863 65.741,239.254 66.084 C 240.608 67.271,241.644 67.514,242.852 66.929 C 244.939 65.919,246.806 68.125,245.667 70.254 C 245.071 71.366,246.468 76.215,247.830 77.768 C 248.839 78.916,248.862 79.016,248.470 80.484 C 247.497 84.122,248.107 88.233,249.861 89.848 C 251.243 91.121,255.171 91.332,255.618 90.157 C 256.102 88.885,256.484 88.800,258.054 89.619 C 260.909 91.107,271.728 89.982,273.969 87.964 C 274.493 87.493,274.712 87.500,276.116 88.036 C 279.844 89.460,283.030 88.090,283.035 85.059 C 283.037 84.039,283.231 82.865,283.466 82.452 C 284.217 81.129,283.692 77.180,282.622 76.111 C 281.996 75.485,279.884 76.372,279.006 77.630 C 277.972 79.111,277.954 79.119,275.533 79.207 C 274.363 79.249,273.207 79.448,272.965 79.649 C 272.652 79.909,272.220 79.889,271.471 79.579 C 270.681 79.251,270.320 79.241,270.024 79.537 C 269.379 80.182,268.761 79.988,268.531 79.070 C 268.270 78.032,268.372 78.039,266.831 78.948 C 265.556 79.700,259.478 79.742,258.301 79.007 C 258.070 78.863,257.674 78.713,257.422 78.675 C 256.245 78.497,255.365 74.974,255.776 72.093 C 255.864 71.477,255.783 70.973,255.596 70.973 C 255.409 70.973,255.346 70.829,255.455 70.653 C 255.564 70.476,255.521 70.250,255.359 70.150 C 254.821 69.818,255.123 66.224,255.747 65.534 C 256.069 65.179,256.331 64.331,256.331 63.645 C 256.331 62.096,256.522 61.978,258.272 62.446 C 259.497 62.772,259.830 62.728,260.847 62.103 C 261.490 61.708,262.598 61.276,263.309 61.144 C 264.068 61.004,264.925 60.528,265.380 59.996 C 266.615 58.550,270.318 57.420,271.413 58.155 C 271.863 58.456,272.849 64.763,272.861 67.415 C 272.868 68.771,272.941 68.876,274.160 69.266 C 274.871 69.493,275.599 69.815,275.780 69.981 C 277.461 71.538,280.199 68.867,280.625 65.255 C 280.757 64.137,281.156 62.712,281.513 62.090 C 282.628 60.143,283.207 56.890,282.866 54.478 C 282.699 53.301,282.643 51.842,282.741 51.234 C 283.163 48.623,277.202 46.866,275.436 49.081 C 274.763 49.925,274.593 49.982,273.885 49.603 C 273.205 49.240,272.872 49.296,271.604 49.989 C 270.228 50.740,270.077 50.759,269.554 50.236 C 269.032 49.713,268.809 49.731,266.536 50.475 C 265.187 50.916,263.230 51.468,262.188 51.700 C 261.146 51.932,260.107 52.191,259.879 52.276 C 259.393 52.456,259.604 46.673,260.143 44.996 C 261.585 40.519,259.771 38.670,254.859 39.611 M137.491 50.241 C 135.761 51.093,135.572 51.306,135.003 53.058 C 134.212 55.488,134.219 55.917,135.056 56.675 C 135.435 57.018,135.745 57.490,135.745 57.724 C 135.745 57.958,136.326 58.258,137.037 58.390 C 138.630 58.688,139.190 59.126,139.192 60.077 C 139.197 62.053,139.869 63.348,140.873 63.319 C 142.158 63.283,142.708 63.657,142.470 64.406 C 142.332 64.842,142.646 65.259,143.576 65.875 C 144.290 66.348,145.418 67.276,146.081 67.938 C 147.347 69.200,151.464 70.005,152.918 69.274 C 153.232 69.116,153.937 68.853,154.486 68.688 C 156.453 68.099,156.452 67.352,154.484 65.342 C 154.084 64.934,153.653 64.269,153.526 63.865 C 153.388 63.424,152.909 63.054,152.325 62.937 C 151.791 62.830,150.784 62.385,150.088 61.949 C 149.391 61.512,148.321 60.839,147.709 60.453 C 147.076 60.054,146.547 59.401,146.481 58.936 C 146.416 58.487,145.833 57.347,145.184 56.404 C 144.535 55.461,143.922 54.283,143.821 53.787 C 142.903 49.266,141.298 48.366,137.491 50.241 M94.553 53.546 C 93.966 53.975,93.885 54.468,93.885 57.581 L 93.885 61.129 95.090 61.486 C 96.763 61.981,97.161 62.289,97.657 63.468 C 98.257 64.896,101.170 68.334,102.410 69.078 C 102.725 69.268,103.030 69.652,103.085 69.932 C 103.141 70.211,103.397 70.665,103.653 70.939 C 104.714 72.075,103.370 75.566,101.806 75.737 C 100.555 75.874,98.972 77.280,98.301 78.848 C 97.898 79.791,97.656 79.975,96.986 79.847 C 96.302 79.716,96.032 79.942,95.369 81.193 C 94.655 82.543,94.458 82.688,93.433 82.620 C 92.805 82.578,92.185 82.714,92.054 82.922 C 91.924 83.130,91.252 83.455,90.562 83.645 C 88.352 84.252,82.687 88.805,82.687 89.975 C 82.687 90.430,82.205 90.843,81.137 91.301 C 79.350 92.066,79.003 93.567,80.247 95.148 C 80.610 95.609,81.120 96.511,81.382 97.151 C 81.967 98.586,84.869 99.414,86.680 98.662 C 87.816 98.190,91.831 94.473,91.530 94.172 C 91.176 93.817,92.374 92.915,93.312 92.830 C 93.816 92.785,94.345 92.732,94.488 92.713 C 94.630 92.694,94.707 92.504,94.660 92.290 C 94.612 92.076,94.909 91.870,95.318 91.833 C 96.346 91.739,97.847 90.703,97.847 90.087 C 97.847 89.807,98.011 89.578,98.212 89.578 C 98.412 89.578,98.491 89.441,98.388 89.273 C 98.284 89.105,98.499 88.889,98.865 88.793 C 99.735 88.566,100.091 90.038,99.610 91.875 C 98.182 97.334,98.769 103.461,100.824 104.545 C 101.176 104.730,101.891 105.164,102.412 105.509 C 103.506 106.233,105.426 105.257,105.426 103.976 C 105.426 103.628,106.047 102.671,106.804 101.849 C 108.395 100.123,108.427 99.974,107.469 98.754 C 107.076 98.255,106.921 97.847,107.124 97.847 C 107.327 97.847,107.494 97.382,107.494 96.813 C 107.494 96.239,107.800 95.473,108.183 95.090 C 108.718 94.555,108.872 93.942,108.872 92.339 C 108.872 90.308,108.893 90.262,110.243 89.410 C 111.114 88.860,111.692 88.198,111.826 87.597 C 112.341 85.279,112.257 85.356,113.988 85.616 C 116.229 85.952,116.665 86.257,118.077 88.480 C 118.761 89.558,119.419 90.517,119.540 90.612 C 121.572 92.206,120.961 97.271,118.685 97.698 C 117.292 97.960,115.945 99.295,116.205 100.156 C 117.633 104.867,119.320 106.804,121.993 106.804 C 122.401 106.804,123.264 107.270,123.911 107.838 C 124.857 108.669,125.402 108.872,126.686 108.872 C 127.639 108.872,128.519 109.085,128.868 109.400 C 130.203 110.609,134.711 108.148,134.711 106.210 C 134.711 105.946,134.866 105.826,135.056 105.943 C 135.693 106.337,135.400 105.543,133.912 102.842 C 133.599 102.274,133.009 101.111,132.601 100.258 C 132.193 99.406,131.339 98.126,130.702 97.415 C 130.065 96.704,129.543 95.917,129.543 95.666 C 129.543 95.416,129.156 94.846,128.682 94.401 C 128.167 93.918,127.821 93.210,127.821 92.643 C 127.821 91.627,126.955 90.060,125.151 87.809 C 124.535 87.041,124.031 86.199,124.031 85.939 C 124.031 85.679,123.494 84.930,122.838 84.273 C 122.181 83.617,121.539 82.643,121.409 82.109 C 121.280 81.574,120.912 80.749,120.592 80.276 C 120.271 79.802,119.911 79.143,119.791 78.811 C 119.672 78.480,119.275 78.208,118.911 78.208 C 117.707 78.208,117.293 72.769,118.344 70.754 C 118.627 70.212,118.860 69.515,118.861 69.207 C 118.865 68.137,119.826 67.702,120.613 68.414 C 121.303 69.039,121.333 69.030,122.182 67.945 C 123.032 66.858,124.129 66.505,124.548 67.183 C 125.148 68.154,127.435 66.748,127.019 65.664 C 126.562 64.472,123.409 63.569,121.557 64.101 C 120.944 64.277,120.578 64.232,120.491 63.971 C 120.123 62.867,114.760 64.585,113.695 66.149 C 113.600 66.288,113.174 66.510,112.748 66.643 C 112.321 66.777,111.972 67.030,111.972 67.207 C 111.972 68.192,110.633 67.288,109.626 65.623 C 108.700 64.095,108.310 63.737,107.558 63.733 C 106.116 63.725,105.659 63.243,105.627 61.702 C 105.611 60.927,105.510 60.293,105.403 60.293 C 105.295 60.293,104.597 59.363,103.852 58.227 C 103.107 57.091,102.304 56.161,102.067 56.160 C 101.830 56.159,101.637 55.930,101.637 55.650 C 101.637 54.997,99.963 53.893,99.176 54.026 C 98.844 54.082,98.107 53.887,97.538 53.593 C 96.253 52.929,95.417 52.915,94.553 53.546 M298.792 53.920 C 297.209 55.056,296.438 58.598,297.297 60.795 C 297.442 61.165,297.399 61.898,297.200 62.424 C 296.890 63.245,297.091 64.000,298.635 67.822 C 299.623 70.266,300.431 72.357,300.431 72.469 C 300.431 73.594,304.646 78.368,305.395 78.090 C 305.602 78.013,306.249 78.238,306.834 78.589 C 309.033 79.911,310.139 76.217,308.394 73.381 C 307.301 71.605,306.288 68.051,306.288 65.994 C 306.288 65.001,306.057 63.726,305.775 63.160 C 305.473 62.556,305.235 61.007,305.198 59.403 C 305.139 56.874,304.444 54.480,303.622 53.977 C 302.741 53.437,299.518 53.399,298.792 53.920 M172.898 59.270 C 172.583 59.454,172.221 60.223,172.094 60.979 C 171.904 62.099,171.440 62.739,169.590 64.435 C 167.522 66.330,165.590 68.880,164.701 70.887 C 164.507 71.327,164.053 71.662,163.653 71.662 C 163.234 71.662,162.788 72.015,162.552 72.532 C 162.334 73.010,161.795 73.492,161.354 73.603 C 160.912 73.714,160.551 73.946,160.551 74.119 C 160.551 74.292,159.737 75.281,158.742 76.317 C 157.748 77.353,156.158 79.081,155.211 80.156 C 151.506 84.362,148.106 87.511,147.267 87.511 C 145.919 87.511,143.519 88.876,142.658 90.133 C 141.176 92.296,142.833 97.158,145.052 97.158 C 145.596 97.158,146.136 97.313,146.253 97.502 C 146.687 98.203,148.220 97.843,149.182 96.813 C 149.713 96.245,150.434 95.780,150.785 95.780 C 151.468 95.780,153.042 94.281,153.417 93.274 C 153.543 92.938,153.920 92.575,154.256 92.467 C 155.826 91.964,156.420 91.411,157.956 89.026 C 158.863 87.617,160.051 86.201,160.595 85.880 C 161.140 85.558,161.672 85.057,161.777 84.766 C 161.882 84.475,162.619 83.767,163.413 83.192 C 164.512 82.396,164.928 81.819,165.152 80.780 C 165.672 78.371,165.942 77.963,167.175 77.732 C 168.815 77.424,171.856 74.061,172.372 71.984 C 172.492 71.498,172.986 70.889,173.468 70.631 C 175.134 69.739,176.169 67.947,176.239 65.836 C 176.273 64.777,176.420 63.121,176.564 62.157 C 176.993 59.298,175.229 57.910,172.898 59.270 M86.908 71.891 C 86.264 72.150,86.388 74.436,87.120 75.802 C 87.869 77.199,88.676 77.475,89.592 76.646 C 89.992 76.283,90.578 76.120,91.114 76.223 C 92.070 76.406,92.572 75.994,92.685 74.935 C 92.827 73.600,92.673 73.040,92.165 73.040 C 91.882 73.040,91.457 72.730,91.221 72.351 C 90.800 71.678,88.140 71.393,86.908 71.891 M328.219 79.183 C 327.515 79.961,327.500 80.422,328.159 81.082 C 329.202 82.124,331.185 80.530,330.633 79.092 C 330.351 78.358,328.917 78.412,328.219 79.183 M323.290 80.618 C 322.880 80.784,322.369 81.463,322.146 82.142 C 321.641 83.670,321.402 83.818,320.187 83.356 C 319.337 83.033,319.126 83.090,318.522 83.811 C 317.553 84.965,315.913 86.039,314.898 86.183 C 314.426 86.250,313.962 86.396,313.867 86.507 C 313.215 87.272,310.326 88.601,310.102 88.239 C 309.906 87.922,309.620 87.922,308.843 88.242 C 308.290 88.469,307.629 88.620,307.373 88.577 C 307.103 88.531,307.010 88.663,307.151 88.891 C 307.434 89.350,306.040 90.956,305.358 90.956 C 305.102 90.956,304.739 90.552,304.551 90.059 C 304.255 89.279,304.086 89.198,303.268 89.439 C 301.605 89.929,293.440 89.822,292.797 89.302 C 291.968 88.632,288.372 92.205,288.372 93.699 C 288.372 96.883,291.904 99.280,296.813 99.429 C 298.140 99.469,299.684 99.643,300.245 99.815 C 301.240 100.121,303.837 99.091,304.410 98.164 C 304.518 97.989,305.265 97.847,306.070 97.847 C 306.875 97.847,307.835 97.619,308.203 97.341 C 308.955 96.772,311.111 96.631,311.111 97.151 C 311.111 97.337,310.685 97.595,310.164 97.725 C 309.105 97.988,306.668 100.478,306.646 101.318 C 306.639 101.617,306.245 102.225,305.771 102.670 C 305.110 103.291,304.910 103.825,304.910 104.970 C 304.910 106.766,304.011 107.838,302.507 107.838 C 301.500 107.838,300.431 109.108,300.431 110.305 C 300.431 110.544,299.822 111.986,299.078 113.509 C 298.335 115.033,297.637 116.693,297.528 117.199 C 297.390 117.844,297.048 118.184,296.383 118.335 C 294.919 118.669,294.004 119.464,294.506 119.967 C 295.216 120.677,294.964 121.205,293.529 122.011 C 292.657 122.502,292.064 123.119,291.935 123.670 C 291.822 124.153,291.306 125.013,290.787 125.581 C 290.269 126.150,289.562 127.468,289.217 128.510 C 288.872 129.552,288.182 130.947,287.684 131.611 C 286.269 133.494,286.173 133.724,285.924 135.835 C 285.795 136.927,285.402 138.229,285.050 138.729 C 281.785 143.365,280.033 147.623,280.336 150.186 C 280.509 151.641,280.435 151.898,279.671 152.499 C 278.885 153.117,278.791 153.485,278.580 156.777 C 278.223 162.363,278.182 162.750,277.887 163.404 C 277.735 163.741,277.708 164.981,277.828 166.160 C 277.947 167.339,278.019 168.613,277.988 168.992 C 277.858 170.568,277.962 172.845,278.206 173.742 C 278.391 174.427,278.306 174.877,277.908 175.317 C 277.277 176.014,277.625 180.290,278.537 183.063 C 278.797 183.851,279.113 185.504,279.241 186.736 C 279.541 189.637,280.860 193.992,281.865 195.404 C 282.790 196.703,282.874 201.267,281.991 202.246 C 281.624 202.653,281.595 203.109,281.863 204.302 C 282.216 205.873,281.581 208.157,280.135 210.508 C 279.376 211.743,278.286 215.683,278.135 217.735 C 278.001 219.555,277.792 220.170,277.000 221.072 C 276.466 221.680,275.933 222.480,275.816 222.851 C 275.698 223.222,275.277 223.611,274.880 223.715 C 274.316 223.862,274.196 224.100,274.330 224.804 C 274.476 225.566,274.391 225.688,273.771 225.600 C 273.369 225.542,272.689 225.797,272.260 226.165 C 271.831 226.533,271.215 226.873,270.891 226.921 C 270.568 226.968,270.144 227.212,269.949 227.462 C 268.919 228.786,266.431 228.062,265.274 226.103 C 264.175 224.241,260.595 220.969,258.484 219.897 C 257.489 219.391,256.675 218.790,256.675 218.562 C 256.675 218.333,255.739 217.474,254.594 216.653 C 253.450 215.831,251.978 214.750,251.323 214.250 C 250.667 213.751,249.550 213.232,248.839 213.099 C 248.128 212.966,247.449 212.698,247.329 212.504 C 247.062 212.072,243.920 211.006,241.992 210.693 C 241.000 210.532,240.468 210.234,240.227 209.705 C 239.771 208.704,235.256 206.029,234.023 206.029 C 233.491 206.029,232.750 205.818,232.376 205.559 C 232.003 205.301,230.922 204.847,229.974 204.550 C 227.082 203.645,223.600 202.318,222.804 201.817 C 221.965 201.289,219.925 200.651,218.088 200.342 C 217.425 200.231,216.364 200.051,215.731 199.942 C 215.074 199.830,214.228 199.933,213.761 200.183 C 213.104 200.535,212.841 200.536,212.421 200.187 C 211.560 199.472,203.837 199.867,202.948 200.672 C 202.466 201.107,201.955 201.235,201.254 201.095 C 200.517 200.948,200.087 201.074,199.641 201.567 C 198.874 202.414,198.372 202.416,197.610 201.575 C 196.794 200.672,191.225 200.935,189.783 201.944 C 189.267 202.305,188.276 202.584,187.509 202.584 C 185.764 202.584,184.172 203.134,182.367 204.361 C 181.575 204.900,180.760 205.340,180.557 205.340 C 180.353 205.340,179.608 205.650,178.901 206.029 C 178.194 206.408,177.427 206.718,177.196 206.718 C 176.059 206.718,175.002 207.607,174.464 209.016 C 173.933 210.407,173.801 210.517,172.750 210.446 C 172.093 210.402,171.349 210.604,170.991 210.924 C 170.650 211.229,169.986 211.532,169.516 211.596 C 168.925 211.678,168.555 212.033,168.315 212.748 C 167.893 214.004,167.538 214.286,166.371 214.293 C 165.814 214.296,164.831 214.853,163.787 215.757 C 161.683 217.579,161.597 217.702,161.590 218.870 C 161.584 219.967,161.111 220.219,157.967 220.802 C 156.407 221.091,155.741 221.402,155.253 222.070 C 154.897 222.557,153.773 223.774,152.755 224.776 C 151.737 225.777,150.904 226.901,150.904 227.273 C 150.904 228.222,149.606 229.510,148.719 229.440 C 148.310 229.407,147.743 229.402,147.459 229.428 C 146.786 229.490,143.325 232.689,143.325 233.249 C 143.325 233.487,142.771 234.294,142.093 235.044 C 141.415 235.794,140.945 236.624,141.048 236.891 C 141.169 237.208,140.911 237.452,140.298 237.599 C 138.881 237.939,136.549 239.385,135.601 240.512 C 134.400 241.939,132.644 241.952,132.644 240.534 C 132.644 239.245,130.863 236.818,129.407 236.123 C 128.415 235.650,128.197 235.310,127.826 233.654 C 127.590 232.598,127.003 231.139,126.521 230.411 C 125.759 229.260,125.692 228.937,126.002 227.925 C 126.294 226.975,126.247 226.592,125.744 225.825 C 125.406 225.310,125.025 224.172,124.897 223.297 C 124.769 222.421,124.129 220.601,123.475 219.251 C 122.117 216.448,121.619 211.567,122.511 209.788 C 122.823 209.166,122.944 207.395,122.911 203.931 C 122.886 201.201,122.995 197.990,123.154 196.796 C 123.349 195.336,123.308 194.039,123.028 192.834 C 122.736 191.579,122.703 190.227,122.917 188.319 C 123.100 186.687,123.094 184.950,122.903 183.981 C 122.714 183.026,122.706 181.604,122.885 180.502 C 123.096 179.196,123.052 178.125,122.736 176.916 C 122.451 175.821,122.368 174.411,122.510 173.044 C 122.636 171.820,122.558 169.966,122.328 168.738 C 122.106 167.551,121.786 164.875,121.618 162.791 C 121.233 158.030,120.827 155.572,120.324 154.967 C 119.857 154.403,119.856 150.910,120.323 150.313 C 120.538 150.038,120.447 149.359,120.058 148.340 C 119.732 147.486,119.446 146.093,119.422 145.245 C 119.399 144.397,119.186 143.510,118.949 143.273 C 118.712 143.036,118.519 142.398,118.519 141.855 C 118.519 141.312,118.346 140.546,118.136 140.153 C 117.926 139.760,117.687 138.190,117.606 136.663 C 117.524 135.136,117.330 133.724,117.175 133.524 C 116.724 132.943,115.762 129.840,115.762 128.965 C 115.762 128.460,115.558 128.165,115.208 128.165 C 114.789 128.165,114.707 127.955,114.870 127.303 C 115.009 126.753,114.835 125.949,114.391 125.078 C 114.008 124.328,113.695 123.473,113.695 123.178 C 113.695 121.316,109.412 115.986,106.359 114.050 C 104.217 112.692,103.490 112.719,99.914 114.293 C 99.440 114.502,98.786 114.756,98.460 114.858 C 97.574 115.135,96.760 117.371,97.028 118.795 C 97.188 119.651,97.140 119.927,96.861 119.754 C 96.645 119.621,96.469 119.199,96.469 118.818 C 96.469 118.140,96.207 117.786,95.015 116.850 C 94.691 116.596,93.390 116.259,92.123 116.102 C 90.240 115.868,89.687 115.651,89.096 114.912 C 87.615 113.061,82.751 114.321,79.625 117.363 C 78.982 117.988,78.323 118.417,78.160 118.317 C 77.997 118.216,77.864 118.279,77.864 118.457 C 77.864 118.635,76.982 119.226,75.904 119.769 C 73.184 121.141,71.550 122.868,71.798 124.108 C 71.956 124.895,71.822 125.142,71.015 125.560 C 70.480 125.837,69.783 126.458,69.466 126.942 C 69.149 127.425,68.657 127.821,68.373 127.821 C 68.088 127.821,66.890 128.717,65.711 129.812 C 64.531 130.907,63.183 132.069,62.716 132.394 C 62.005 132.889,61.876 133.238,61.932 134.522 C 62.001 136.095,61.416 137.123,60.451 137.123 C 59.530 137.123,57.430 140.937,57.453 142.566 C 57.470 143.705,57.313 144.142,56.773 144.461 C 56.386 144.689,55.708 145.680,55.266 146.665 C 54.824 147.649,53.694 149.529,52.757 150.844 C 50.781 153.612,49.268 156.342,49.268 157.138 C 49.268 157.443,48.803 158.180,48.234 158.774 C 46.951 160.117,46.953 160.245,48.270 161.745 C 48.858 162.415,49.190 162.963,49.008 162.963 C 47.786 162.963,44.825 166.252,44.801 167.635 C 44.794 168.026,44.363 168.668,43.842 169.061 C 42.555 170.032,40.853 173.545,39.952 177.089 C 38.619 182.329,36.556 186.971,34.830 188.609 C 34.064 189.336,33.764 189.936,33.764 190.742 C 33.764 191.358,33.604 191.962,33.409 192.082 C 33.209 192.206,33.145 192.788,33.263 193.417 C 33.411 194.208,33.315 194.662,32.929 194.982 C 32.630 195.230,32.386 195.848,32.386 196.356 C 32.386 196.863,32.201 197.463,31.976 197.688 C 31.470 198.194,31.280 198.910,31.181 200.689 C 31.138 201.447,31.082 202.342,31.056 202.677 C 31.029 203.013,30.647 203.452,30.205 203.653 C 29.282 204.074,28.596 205.703,28.596 207.476 C 28.596 208.150,28.363 209.258,28.079 209.938 C 27.393 211.581,27.416 211.772,28.430 212.786 C 29.367 213.722,29.294 214.298,28.238 214.298 C 27.793 214.298,27.511 214.609,27.380 215.245 C 27.149 216.362,26.224 219.597,25.766 220.891 C 25.557 221.481,25.576 222.266,25.821 223.130 C 26.609 225.912,26.776 231.317,26.107 232.418 C 25.333 233.693,25.332 233.690,26.357 234.907 C 27.571 236.350,27.518 237.898,26.233 238.562 C 24.482 239.468,24.399 243.332,26.058 246.697 C 27.147 248.904,27.317 249.567,27.262 251.385 C 27.203 253.314,27.278 253.561,28.110 254.167 C 28.922 254.759,28.973 254.910,28.571 255.554 C 27.348 257.512,29.625 263.910,31.545 263.910 C 32.835 263.910,33.341 264.663,33.504 266.822 C 33.648 268.712,33.772 268.973,35.090 270.142 C 36.255 271.176,36.520 271.636,36.520 272.621 C 36.520 275.159,38.741 278.865,41.512 280.950 C 42.890 281.987,44.109 283.074,44.220 283.366 C 44.476 284.032,47.482 285.960,48.266 285.960 C 48.842 285.960,50.136 286.916,52.126 288.813 C 53.170 289.808,54.821 290.784,55.460 290.784 C 55.800 290.784,56.748 291.337,59.948 293.401 C 60.612 293.829,62.007 294.342,63.049 294.540 C 66.600 295.216,68.036 295.792,68.155 296.590 C 68.286 297.471,69.455 297.842,71.116 297.530 C 72.105 297.345,72.466 297.473,73.430 298.354 C 74.058 298.928,74.705 299.397,74.868 299.397 C 75.031 299.397,76.224 299.862,77.519 300.431 C 79.274 301.201,80.399 301.464,81.931 301.464 C 83.084 301.464,84.420 301.690,84.974 301.979 C 85.516 302.262,86.286 302.495,86.684 302.496 C 87.082 302.497,87.908 302.672,88.520 302.885 C 89.344 303.173,89.852 303.172,90.486 302.884 C 91.084 302.611,91.539 302.601,92.006 302.851 C 92.506 303.119,92.889 303.065,93.545 302.635 C 94.354 302.105,94.466 302.105,95.040 302.625 C 95.382 302.934,95.968 303.187,96.344 303.187 C 97.871 303.187,98.370 303.990,97.868 305.643 C 97.616 306.471,97.434 307.884,97.463 308.783 C 97.502 310.022,97.291 310.770,96.590 311.881 C 96.081 312.687,95.684 313.502,95.708 313.693 C 95.731 313.884,95.833 315.171,95.933 316.554 L 96.116 319.069 94.570 320.572 C 93.719 321.398,93.023 322.336,93.023 322.655 C 93.023 322.974,92.761 323.679,92.441 324.222 C 91.883 325.165,91.892 325.279,92.637 326.871 L 93.416 328.534 92.676 330.417 C 92.268 331.452,91.622 332.808,91.240 333.429 C 90.372 334.837,90.978 336.069,92.766 336.533 C 93.477 336.717,93.920 337.065,93.984 337.489 C 94.235 339.164,94.445 339.707,94.844 339.707 C 95.080 339.707,95.851 340.017,96.559 340.396 C 97.266 340.775,98.092 341.085,98.394 341.085 C 98.697 341.085,99.026 341.395,99.125 341.774 C 99.289 342.403,99.997 342.646,101.206 342.489 C 101.443 342.458,101.637 342.595,101.637 342.793 C 101.637 343.283,103.125 343.249,103.627 342.747 C 103.937 342.436,104.185 342.481,104.690 342.937 C 105.709 343.859,109.382 343.785,110.407 342.822 L 111.186 342.091 111.717 342.901 C 112.611 344.265,117.085 345.138,117.726 344.073 C 118.547 342.709,120.042 342.348,121.592 343.138 C 123.326 344.023,123.862 343.905,124.133 342.579 C 124.550 340.542,125.139 340.169,126.589 341.024 C 128.301 342.034,131.150 341.336,132.640 339.540 C 132.878 339.253,133.331 339.018,133.646 339.018 C 134.263 339.018,135.401 337.365,135.401 336.467 C 135.401 335.599,136.054 335.827,136.293 336.779 C 136.543 337.774,137.146 337.867,138.330 337.091 L 139.169 336.541 138.346 334.917 C 137.464 333.177,135.999 332.387,134.266 332.719 C 133.798 332.808,133.309 332.712,133.181 332.504 C 132.881 332.019,131.376 332.015,131.077 332.499 C 130.933 332.733,130.251 332.789,129.242 332.650 C 127.945 332.472,127.279 332.595,125.771 333.294 C 124.745 333.769,123.818 334.106,123.710 334.042 C 122.645 333.414,114.485 333.177,113.729 333.753 C 113.045 334.274,111.745 334.318,111.443 333.830 C 111.316 333.625,110.794 333.558,110.250 333.678 C 109.705 333.797,109.183 333.731,109.056 333.526 C 108.932 333.325,108.336 333.160,107.732 333.159 C 107.127 333.159,105.702 332.775,104.565 332.306 C 103.428 331.838,102.149 331.451,101.723 331.447 C 100.881 331.438,100.590 329.867,101.298 329.159 C 101.649 328.807,102.067 323.528,102.067 319.439 C 102.067 317.736,102.190 317.215,102.627 317.062 C 103.799 316.651,104.778 315.384,105.293 313.612 C 105.587 312.602,106.202 311.370,106.660 310.876 C 107.317 310.167,107.494 309.602,107.494 308.205 C 107.494 306.498,107.528 306.433,108.441 306.446 C 109.223 306.458,109.408 306.294,109.497 305.512 C 109.557 304.991,109.778 304.565,109.987 304.565 C 110.196 304.565,111.162 303.711,112.133 302.667 C 113.775 300.903,113.947 300.805,114.572 301.278 C 114.943 301.558,115.739 301.792,116.343 301.798 C 118.109 301.815,119.204 302.406,119.713 303.615 C 120.543 305.590,122.025 306.717,123.442 306.451 C 124.854 306.186,125.629 307.086,125.260 308.559 C 125.113 309.142,125.196 309.388,125.538 309.388 C 125.806 309.388,126.111 309.615,126.217 309.891 C 126.324 310.168,127.232 310.808,128.235 311.313 C 129.239 311.819,130.106 312.351,130.163 312.496 C 130.219 312.641,130.785 312.600,131.420 312.405 C 132.480 312.080,132.662 312.139,133.632 313.131 C 134.213 313.726,134.999 314.212,135.379 314.212 C 135.758 314.212,136.413 314.677,136.833 315.245 C 137.253 315.814,137.772 316.279,137.985 316.279 C 138.198 316.279,138.818 316.744,139.363 317.313 C 139.998 317.975,140.696 318.346,141.310 318.346 C 141.914 318.346,142.403 318.600,142.636 319.035 C 142.838 319.414,143.248 319.724,143.546 319.724 C 143.843 319.724,144.547 320.112,145.110 320.586 C 145.673 321.060,146.548 321.545,147.055 321.665 C 147.561 321.785,148.751 322.228,149.699 322.649 C 150.646 323.070,152.047 323.588,152.812 323.801 C 153.576 324.013,154.529 324.491,154.928 324.863 C 155.328 325.235,155.745 325.450,155.855 325.339 C 155.965 325.229,156.253 325.288,156.495 325.472 C 156.736 325.655,157.631 325.843,158.484 325.891 C 159.337 325.939,160.505 326.251,161.081 326.586 C 162.138 327.200,162.963 326.917,162.963 325.940 C 162.963 325.441,163.538 325.492,164.439 326.073 C 165.397 326.690,168.212 326.073,168.933 325.088 C 169.316 324.564,169.668 324.493,170.948 324.685 C 171.800 324.813,172.911 324.761,173.415 324.569 C 174.307 324.230,174.333 324.256,174.334 325.504 C 174.335 326.210,174.779 327.873,175.321 329.199 C 176.061 331.011,176.230 331.814,176.000 332.429 C 175.789 332.995,175.902 333.979,176.369 335.628 C 176.998 337.853,177.006 338.073,176.480 338.989 C 175.786 340.199,176.313 342.170,177.845 344.099 C 178.377 344.767,178.811 345.530,178.811 345.795 C 178.811 346.059,179.044 346.364,179.328 346.473 C 179.612 346.582,179.845 346.880,179.845 347.134 C 179.845 347.676,181.741 349.170,182.860 349.509 C 183.286 349.639,183.635 349.964,183.635 350.232 C 183.635 350.663,184.685 351.788,187.816 354.709 C 188.372 355.228,189.133 355.556,189.783 355.556 C 190.427 355.556,191.692 356.095,193.009 356.930 C 194.462 357.852,195.574 358.307,196.382 358.310 C 197.046 358.313,198.170 358.477,198.880 358.674 C 199.770 358.921,200.572 358.923,201.457 358.679 C 202.526 358.383,202.960 358.438,204.051 359.007 C 205.864 359.952,208.963 359.957,209.467 359.016 C 209.917 358.174,212.035 357.720,212.748 358.312 C 213.030 358.546,213.683 358.651,214.209 358.546 C 217.221 357.948,218.737 357.417,219.822 356.581 C 220.491 356.065,221.548 355.531,222.169 355.395 C 223.907 355.013,229.113 350.171,229.113 348.936 C 229.113 348.225,229.419 347.784,230.314 347.204 C 230.975 346.776,231.518 346.175,231.520 345.869 C 231.523 345.563,231.835 344.918,232.214 344.437 C 232.593 343.955,232.903 343.410,232.903 343.226 C 232.903 343.043,233.159 342.680,233.473 342.419 C 234.159 341.851,234.889 340.177,235.307 338.218 C 235.475 337.426,235.934 335.863,236.325 334.744 C 236.740 333.559,237.039 331.833,237.042 330.610 C 237.054 325.689,240.575 321.950,244.503 322.687 C 245.205 322.818,245.650 322.763,245.650 322.544 C 245.650 321.715,246.709 321.092,247.447 321.486 C 248.147 321.861,249.451 321.631,251.782 320.722 C 252.217 320.552,252.842 320.413,253.170 320.413 C 253.498 320.413,254.037 320.097,254.367 319.711 C 254.811 319.192,255.320 319.029,256.311 319.088 C 257.048 319.131,257.873 318.983,258.143 318.759 C 258.413 318.535,258.736 318.454,258.860 318.579 C 258.985 318.704,259.087 318.604,259.087 318.358 C 259.087 318.039,259.464 317.962,260.408 318.088 C 261.710 318.263,262.859 317.416,262.587 316.483 C 262.402 315.849,263.401 315.628,264.171 316.133 C 264.896 316.608,265.141 316.556,267.409 315.438 C 268.758 314.774,269.982 314.304,270.130 314.395 C 270.277 314.486,270.591 314.122,270.829 313.585 C 272.286 310.293,274.305 310.827,274.763 314.625 L 275.108 317.480 276.882 317.762 C 278.718 318.053,279.053 318.439,279.065 320.276 C 279.072 321.386,281.040 323.853,282.358 324.404 C 283.138 324.730,283.777 325.367,284.246 326.287 C 284.636 327.052,285.220 327.945,285.544 328.271 C 285.868 328.598,286.408 329.290,286.744 329.808 C 287.181 330.482,287.642 330.749,288.368 330.749 C 289.003 330.749,289.821 331.135,290.559 331.783 C 291.206 332.351,291.880 332.817,292.057 332.817 C 292.233 332.817,292.833 333.296,293.389 333.882 C 294.519 335.070,296.050 335.909,298.363 336.605 C 299.216 336.862,300.236 337.356,300.629 337.704 C 301.131 338.148,301.645 338.276,302.356 338.133 C 303.152 337.974,303.655 338.158,304.704 338.991 C 306.028 340.044,308.074 340.398,311.111 340.099 C 311.585 340.053,312.502 340.014,313.149 340.013 C 314.682 340.010,315.833 339.390,317.731 337.545 C 319.713 335.619,319.799 335.100,319.383 327.508 C 319.197 324.114,319.130 320.781,319.235 320.100 C 319.348 319.371,319.204 318.244,318.886 317.355 C 318.589 316.526,318.346 315.009,318.346 313.983 C 318.346 312.797,318.095 311.625,317.657 310.767 C 317.278 310.024,316.968 309.097,316.968 308.706 C 316.968 308.316,316.581 307.043,316.107 305.877 C 315.633 304.711,315.245 303.331,315.245 302.809 C 315.245 302.278,314.829 301.367,314.298 300.736 C 313.777 300.116,313.413 299.543,313.489 299.461 C 313.566 299.380,313.242 298.828,312.771 298.235 C 310.843 295.813,310.841 295.658,312.705 293.998 C 313.867 292.964,314.623 292.542,315.159 292.630 C 315.586 292.699,315.935 292.645,315.935 292.511 C 315.935 292.289,318.464 291.016,319.110 290.913 C 319.259 290.889,319.521 290.851,319.693 290.827 C 319.866 290.803,320.766 290.184,321.695 289.450 C 322.623 288.716,323.726 288.007,324.147 287.873 C 324.885 287.639,326.865 286.134,329.371 283.901 C 330.034 283.311,330.897 282.641,331.287 282.413 C 333.596 281.065,334.796 280.012,338.755 275.860 C 343.925 270.437,345.412 268.562,346.107 266.594 C 346.900 264.346,348.365 261.406,349.110 260.570 C 349.551 260.074,349.862 259.060,350.010 257.630 C 350.248 255.324,351.643 252.763,352.885 252.350 C 353.217 252.240,353.488 251.913,353.488 251.623 C 353.488 251.334,353.793 250.669,354.165 250.146 C 355.048 248.907,355.405 246.656,354.876 245.668 C 354.547 245.053,354.567 244.792,354.982 244.330 C 355.697 243.531,356.934 239.712,356.934 238.300 C 356.934 237.657,357.223 236.760,357.577 236.308 C 357.931 235.856,358.306 234.944,358.410 234.281 C 358.515 233.618,358.843 232.145,359.140 231.008 C 359.436 229.871,359.682 228.080,359.685 227.028 C 359.688 225.977,359.835 224.969,360.013 224.789 C 360.191 224.609,360.417 221.438,360.516 217.743 C 360.615 214.048,360.783 209.475,360.889 207.580 C 360.996 205.685,361.118 203.489,361.162 202.701 C 361.205 201.912,361.351 201.156,361.487 201.019 C 361.622 200.882,361.571 200.469,361.374 200.100 C 361.177 199.731,361.103 199.201,361.210 198.922 C 361.334 198.598,361.261 198.502,361.010 198.658 C 360.735 198.828,360.682 198.650,360.837 198.073 C 360.959 197.617,361.061 196.731,361.063 196.104 C 361.066 195.477,361.196 195.043,361.352 195.139 C 361.508 195.236,361.405 194.105,361.124 192.626 C 360.827 191.072,360.729 189.661,360.891 189.284 C 361.460 187.955,360.851 185.547,359.677 184.484 C 358.820 183.708,358.817 183.290,359.669 183.290 C 360.124 183.290,360.320 183.071,360.284 182.601 C 360.256 182.222,360.110 181.912,359.961 181.912 C 359.812 181.912,359.690 180.768,359.690 179.370 C 359.690 177.972,359.478 176.306,359.220 175.667 C 358.962 175.028,358.725 173.157,358.694 171.509 C 358.661 169.768,358.423 168.001,358.126 167.290 C 357.845 166.617,357.598 165.950,357.578 165.807 C 357.557 165.664,357.401 165.181,357.231 164.733 C 357.061 164.285,356.949 163.743,356.982 163.527 C 357.015 163.312,356.953 162.903,356.843 162.618 C 356.129 160.771,355.218 157.243,354.885 155.039 C 354.671 153.618,354.115 151.370,353.649 150.043 C 353.183 148.717,352.802 147.359,352.801 147.025 C 352.800 146.692,352.334 145.933,351.766 145.338 C 350.909 144.442,350.732 143.971,350.732 142.593 C 350.732 141.218,350.589 140.835,349.908 140.389 C 349.454 140.092,348.995 139.429,348.888 138.916 C 348.179 135.527,347.653 133.989,346.683 132.472 C 346.078 131.525,345.178 129.461,344.684 127.886 C 344.082 125.964,343.578 124.944,343.151 124.785 C 342.468 124.530,340.395 120.886,340.399 119.948 C 340.400 119.635,339.866 118.837,339.212 118.174 C 336.791 115.718,335.228 113.950,335.228 113.667 C 335.228 113.411,333.977 112.556,333.506 112.489 C 332.846 112.396,331.761 111.461,330.945 110.283 C 330.416 109.521,329.885 108.910,329.764 108.925 C 329.643 108.941,329.466 108.923,329.371 108.886 C 327.623 108.204,325.953 108.281,325.205 109.078 C 324.777 109.533,324.293 109.905,324.128 109.905 C 323.964 109.905,323.115 110.680,322.242 111.628 C 321.369 112.575,320.446 113.351,320.190 113.351 C 318.490 113.351,320.015 117.051,322.674 119.380 C 323.755 120.327,325.308 121.695,326.124 122.419 C 328.274 124.328,331.094 128.658,331.773 131.094 C 332.252 132.810,332.570 133.306,333.645 134.012 C 334.770 134.751,334.914 134.993,334.741 135.855 C 334.602 136.550,334.748 137.108,335.230 137.721 C 335.608 138.201,335.917 138.814,335.917 139.082 C 335.917 139.843,336.960 141.672,337.769 142.327 C 338.303 142.760,338.508 143.325,338.524 144.415 C 338.537 145.236,338.866 146.684,339.255 147.631 C 340.272 150.110,341.421 153.549,341.935 155.654 C 342.179 156.655,342.638 157.761,342.955 158.111 C 343.322 158.517,343.456 159.045,343.325 159.567 C 343.212 160.018,343.359 160.962,343.653 161.664 C 343.946 162.366,344.186 163.788,344.186 164.824 C 344.186 165.860,344.357 167.144,344.566 167.678 C 344.775 168.211,345.315 170.263,345.767 172.238 C 346.229 174.256,346.870 176.142,347.231 176.545 C 348.252 177.683,348.366 178.410,347.961 181.193 C 347.598 183.681,347.622 183.898,348.455 185.692 L 349.330 187.578 348.620 188.334 C 347.560 189.462,347.841 195.713,349.000 196.792 C 349.898 197.628,349.834 198.612,348.686 201.622 C 348.111 203.128,348.021 203.747,348.300 204.269 C 348.501 204.644,348.665 205.508,348.665 206.190 C 348.665 206.872,348.898 207.986,349.182 208.666 C 349.901 210.387,349.832 211.186,348.837 212.649 C 347.865 214.080,347.757 214.643,348.452 214.643 C 348.715 214.643,349.023 214.991,349.137 215.418 C 349.456 216.610,349.402 216.771,348.751 216.565 C 348.234 216.402,348.139 216.632,348.085 218.181 C 348.051 219.174,347.851 220.438,347.642 220.988 C 347.430 221.547,347.359 222.638,347.481 223.457 C 347.643 224.532,347.505 225.448,346.967 226.887 C 346.459 228.244,346.255 229.501,346.306 230.962 C 346.346 232.124,346.205 233.385,345.992 233.764 C 345.779 234.143,345.462 235.871,345.289 237.604 C 345.062 239.867,344.771 241.039,344.258 241.760 C 343.864 242.312,343.442 243.164,343.320 243.653 C 343.197 244.142,342.721 245.283,342.263 246.188 C 341.805 247.094,341.430 248.271,341.430 248.804 C 341.430 249.337,340.810 251.210,340.052 252.966 C 339.295 254.722,338.675 256.394,338.674 256.681 C 338.674 256.969,338.286 257.775,337.812 258.472 C 337.339 259.169,336.951 259.897,336.951 260.091 C 336.951 260.284,335.894 261.493,334.602 262.779 C 333.310 264.064,331.900 265.750,331.469 266.525 C 331.037 267.300,330.234 268.201,329.683 268.526 C 329.133 268.851,328.682 269.314,328.682 269.555 C 328.682 270.152,327.210 271.490,326.553 271.490 C 326.259 271.490,325.625 271.800,325.143 272.179 C 324.661 272.558,324.053 272.868,323.793 272.868 C 323.532 272.868,322.478 273.719,321.451 274.759 C 320.199 276.027,319.054 276.825,317.972 277.185 C 317.086 277.479,316.085 278.024,315.749 278.395 C 315.414 278.766,314.959 279.070,314.739 279.070 C 314.519 279.070,314.087 279.599,313.779 280.246 C 313.470 280.893,312.937 281.497,312.595 281.587 C 312.253 281.678,311.244 281.942,310.353 282.174 C 309.463 282.405,308.470 282.887,308.146 283.244 C 307.823 283.601,307.387 283.893,307.177 283.893 C 306.967 283.893,306.643 284.232,306.456 284.645 C 305.945 285.775,301.826 288.028,300.272 288.028 C 299.793 288.028,299.362 287.709,299.118 287.173 C 298.609 286.054,296.296 286.908,296.296 288.215 C 296.296 289.389,294.961 290.305,294.320 289.572 C 292.435 287.415,292.323 287.407,290.510 289.299 C 288.928 290.948,288.028 292.852,288.028 294.545 C 288.028 295.502,286.244 296.296,284.093 296.296 C 282.710 296.296,282.434 296.438,281.462 297.647 C 280.720 298.571,279.901 299.138,278.870 299.442 C 277.707 299.786,277.284 300.115,277.015 300.887 C 276.695 301.805,276.567 301.868,275.456 301.660 C 274.740 301.526,274.246 301.571,274.246 301.772 C 274.246 301.958,273.084 302.542,271.662 303.071 C 269.779 303.771,269.078 304.198,269.078 304.643 C 269.078 305.302,268.199 305.450,267.376 304.929 C 267.061 304.730,266.557 304.774,265.998 305.048 C 265.513 305.286,264.641 305.434,264.061 305.377 C 263.310 305.303,262.464 305.630,261.132 306.507 C 259.811 307.378,258.652 307.827,257.197 308.033 C 256.063 308.194,255.085 308.476,255.023 308.660 C 254.962 308.844,254.388 308.909,253.748 308.805 C 252.883 308.665,252.345 308.803,251.659 309.343 C 251.049 309.823,250.463 310.001,249.934 309.869 C 249.461 309.750,248.812 309.893,248.349 310.217 C 247.917 310.519,247.300 310.767,246.976 310.767 C 246.653 310.767,246.161 310.994,245.884 311.272 C 242.786 314.370,238.308 312.853,237.828 308.543 C 237.721 307.587,237.441 306.572,237.205 306.288 C 236.326 305.228,234.970 302.301,234.970 301.464 C 234.970 300.970,234.673 300.411,234.281 300.166 C 233.902 299.929,233.592 299.427,233.592 299.050 C 233.592 298.554,233.361 298.363,232.759 298.363 C 232.200 298.363,231.569 297.912,230.835 296.985 C 230.235 296.227,229.518 295.607,229.241 295.607 C 228.965 295.607,228.009 294.930,227.117 294.103 C 226.225 293.275,224.914 292.391,224.203 292.139 C 223.493 291.886,222.911 291.593,222.911 291.487 C 222.911 291.382,222.202 291.352,221.335 291.421 C 220.393 291.496,219.143 291.311,218.231 290.963 C 216.533 290.315,214.280 290.492,213.587 291.328 C 213.064 291.957,212.262 291.952,211.571 291.315 C 208.741 288.711,208.107 288.315,207.109 288.534 C 206.308 288.710,205.918 288.574,205.219 287.875 C 203.866 286.522,202.540 286.659,203.297 288.072 C 203.810 289.030,203.241 289.612,201.523 289.887 C 200.315 290.080,200.160 290.203,200.355 290.817 C 200.478 291.205,200.390 291.982,200.158 292.542 C 199.762 293.497,199.823 293.662,201.160 295.248 C 201.943 296.177,202.584 297.103,202.584 297.306 C 202.584 297.508,202.757 297.674,202.969 297.674 C 203.181 297.674,203.884 298.140,204.532 298.708 C 205.179 299.276,205.990 299.742,206.334 299.742 C 206.679 299.742,207.668 300.118,208.532 300.577 C 209.397 301.037,210.854 301.516,211.770 301.642 C 213.746 301.914,215.125 302.300,217.919 303.361 C 220.245 304.244,226.012 309.445,226.012 310.660 C 226.012 311.017,226.304 311.882,226.660 312.581 C 227.609 314.442,227.913 318.001,227.278 319.813 C 226.341 322.485,225.361 326.417,225.126 328.439 C 224.901 330.386,224.271 330.983,223.991 329.515 C 223.722 328.106,222.320 327.966,220.716 329.188 C 220.103 329.656,219.042 330.273,218.359 330.558 C 215.151 331.898,213.781 338.805,216.193 341.475 C 217.367 342.775,217.850 344.404,216.968 344.090 C 216.731 344.006,215.962 344.226,215.259 344.578 C 214.556 344.931,213.344 345.220,212.566 345.220 C 211.177 345.220,209.856 345.692,209.432 346.340 C 209.314 346.521,208.229 346.701,207.021 346.739 C 205.812 346.778,204.512 346.980,204.132 347.188 C 203.611 347.473,203.102 347.441,202.065 347.058 C 201.308 346.779,200.071 346.397,199.316 346.210 C 198.561 346.022,197.708 345.669,197.421 345.425 C 196.769 344.871,193.885 343.497,193.373 343.497 C 193.163 343.497,192.891 343.036,192.767 342.473 C 192.643 341.909,192.088 341.067,191.534 340.600 C 189.765 339.112,190.360 337.917,193.004 337.651 L 194.832 337.468 194.832 336.208 C 194.832 335.516,194.948 334.831,195.090 334.687 C 196.924 332.826,192.236 326.044,189.427 326.493 C 186.806 326.912,184.744 325.131,185.726 323.297 C 185.993 322.798,186.168 322.058,186.114 321.651 C 186.061 321.245,186.238 320.373,186.507 319.715 C 186.776 319.057,187.108 317.588,187.244 316.451 C 187.538 314.003,188.195 312.293,189.299 311.111 C 189.742 310.637,190.197 309.940,190.310 309.561 C 190.582 308.654,193.166 307.115,194.909 306.821 C 196.524 306.548,197.191 305.566,196.623 304.301 C 196.343 303.679,196.413 303.365,196.965 302.751 C 198.127 301.460,198.163 300.861,197.147 299.788 C 196.632 299.245,195.944 298.474,195.619 298.074 C 195.293 297.675,194.596 297.259,194.068 297.150 C 193.541 297.041,192.523 296.778,191.807 296.565 C 190.828 296.275,190.405 296.279,190.102 296.582 C 189.880 296.804,189.255 296.985,188.714 296.985 C 187.319 296.985,181.780 302.514,181.248 304.437 C 180.710 306.382,180.388 306.738,178.808 307.135 C 176.324 307.761,175.050 313.124,177.086 314.383 C 178.841 315.467,176.737 316.688,173.918 316.221 C 172.035 315.909,171.516 315.936,170.679 316.392 C 168.008 317.845,168.136 317.812,166.987 317.341 C 164.232 316.213,163.380 316.107,162.616 316.798 C 161.834 317.506,160.720 317.156,158.524 315.515 C 158.072 315.177,157.209 314.901,156.607 314.901 C 155.833 314.901,155.216 314.590,154.500 313.839 C 153.944 313.255,153.023 312.561,152.455 312.296 C 151.886 312.031,151.189 311.669,150.904 311.491 C 150.620 311.313,149.891 310.984,149.284 310.760 C 148.677 310.536,147.016 309.688,145.592 308.877 C 144.169 308.066,142.572 307.295,142.045 307.164 C 141.517 307.033,140.760 306.622,140.362 306.251 C 139.963 305.879,138.678 305.398,137.497 305.178 C 136.118 304.921,135.241 304.567,135.036 304.182 C 134.438 303.066,133.631 302.498,132.643 302.498 C 131.959 302.498,131.590 302.286,131.438 301.807 C 131.060 300.617,129.517 299.053,128.721 299.053 C 128.288 299.053,127.382 298.460,126.615 297.674 C 125.875 296.916,124.989 296.296,124.647 296.296 C 124.304 296.296,123.754 295.965,123.425 295.561 C 122.326 294.214,121.116 293.034,119.665 291.896 L 118.228 290.769 116.294 291.624 C 114.760 292.302,114.255 292.731,113.851 293.699 C 113.571 294.369,113.201 294.918,113.030 294.918 C 112.858 294.918,112.494 295.004,112.221 295.109 C 111.948 295.214,111.276 294.927,110.729 294.472 C 110.181 294.017,109.132 293.551,108.398 293.435 C 107.664 293.320,106.799 292.986,106.476 292.693 C 106.153 292.401,105.700 292.162,105.468 292.162 C 105.237 292.162,104.551 291.899,103.945 291.577 C 102.466 290.792,98.342 290.381,96.909 290.876 C 96.031 291.180,95.417 291.144,93.980 290.709 C 90.983 289.801,89.190 289.675,87.540 290.257 C 85.592 290.944,84.883 290.921,83.774 290.138 C 83.271 289.782,82.317 289.380,81.654 289.244 C 80.991 289.109,79.715 288.744,78.819 288.434 C 77.482 287.972,76.993 287.945,76.098 288.283 C 74.767 288.785,74.566 288.679,74.295 287.323 C 74.178 286.738,73.942 286.346,73.771 286.452 C 73.299 286.743,70.067 285.312,65.805 282.922 C 64.953 282.444,63.790 281.802,63.221 281.494 C 62.653 281.187,61.271 280.322,60.149 279.572 C 58.419 278.414,57.860 278.216,56.444 278.261 C 54.683 278.316,54.314 277.910,54.526 276.156 C 54.579 275.719,54.283 275.322,53.685 275.029 C 52.868 274.629,50.855 272.291,50.557 271.395 C 50.496 271.211,49.832 270.959,49.081 270.834 C 47.588 270.586,47.560 270.495,48.068 267.513 C 48.284 266.249,48.226 266.084,47.433 265.723 C 46.952 265.504,46.209 264.852,45.782 264.273 C 45.354 263.695,44.812 263.221,44.576 263.221 C 43.503 263.221,41.961 260.045,41.823 257.550 C 41.727 255.811,41.492 254.858,40.991 254.180 C 40.163 253.059,39.621 250.475,39.621 247.648 C 39.621 246.524,39.448 245.282,39.237 244.887 C 39.025 244.492,38.715 243.223,38.546 242.067 C 38.378 240.911,38.149 239.487,38.038 238.901 C 37.901 238.179,38.009 237.665,38.372 237.301 C 38.822 236.851,38.882 236.002,38.744 231.992 C 38.326 219.778,38.343 219.258,39.190 218.354 C 39.617 217.899,39.966 217.227,39.967 216.860 C 39.968 216.493,40.278 215.685,40.656 215.065 C 41.142 214.267,41.344 213.329,41.344 211.860 C 41.344 208.757,42.256 205.108,43.086 204.891 C 43.587 204.760,43.755 204.414,43.755 203.520 C 43.755 202.862,43.973 201.801,44.239 201.162 C 44.504 200.523,44.833 199.106,44.968 198.014 C 45.103 196.922,45.478 195.682,45.801 195.258 C 46.124 194.834,46.585 193.585,46.825 192.482 C 47.237 190.586,48.161 188.058,48.979 186.591 C 49.181 186.227,49.643 184.691,50.004 183.178 C 50.463 181.256,50.918 180.188,51.515 179.635 C 52.137 179.059,52.369 178.486,52.369 177.526 C 52.369 175.979,53.108 174.769,54.147 174.614 C 54.740 174.526,54.984 174.095,55.380 172.438 C 55.651 171.301,56.150 170.129,56.490 169.833 C 57.385 169.053,58.052 167.554,58.550 165.202 C 58.791 164.065,59.209 162.885,59.479 162.580 C 59.748 162.274,60.110 161.158,60.283 160.098 C 60.767 157.124,61.469 156.168,63.470 155.758 C 64.375 155.573,64.618 155.325,64.808 154.396 C 64.936 153.772,65.436 152.847,65.918 152.341 C 66.526 151.704,66.870 150.857,67.038 149.586 C 67.235 148.089,67.430 147.693,68.093 147.441 C 68.690 147.214,68.906 146.866,68.906 146.132 C 68.906 145.582,69.139 144.939,69.423 144.703 C 69.707 144.467,69.940 144.114,69.940 143.919 C 69.940 142.662,72.404 138.811,73.007 139.125 C 73.373 139.315,76.141 136.315,76.141 135.730 C 76.141 135.044,77.303 133.921,77.652 134.270 C 77.788 134.406,77.806 134.272,77.690 133.970 C 77.546 133.594,77.943 133.069,78.964 132.290 C 79.780 131.667,81.085 130.523,81.863 129.748 C 82.641 128.972,84.191 127.544,85.308 126.573 C 90.604 121.970,90.743 121.882,91.890 122.404 C 92.581 122.719,92.854 122.621,93.807 121.715 C 95.382 120.218,97.369 120.018,98.027 121.290 C 98.685 122.563,100.828 124.376,101.676 124.376 C 102.844 124.376,105.426 127.226,105.426 128.515 C 105.426 129.318,105.609 129.656,106.115 129.788 C 106.530 129.897,106.807 130.261,106.810 130.703 C 106.813 131.108,107.294 131.981,107.880 132.644 C 109.042 133.961,109.115 136.388,108.053 138.415 C 107.756 138.981,107.690 139.613,107.866 140.189 C 108.312 141.646,108.782 143.697,109.200 146.007 C 109.416 147.197,109.985 148.903,110.466 149.796 C 111.216 151.193,111.309 151.696,111.124 153.379 C 110.970 154.792,111.062 155.701,111.458 156.647 C 111.801 157.468,111.929 158.410,111.801 159.169 C 111.679 159.893,111.811 160.984,112.129 161.887 C 112.422 162.716,112.661 164.219,112.661 165.226 C 112.661 166.671,112.808 167.161,113.354 167.543 C 114.031 168.018,114.033 168.047,113.409 168.855 C 112.219 170.396,112.304 173.608,113.586 175.529 C 114.366 176.698,114.157 178.374,113.149 179.035 C 112.145 179.693,112.142 180.124,113.113 185.702 C 113.597 188.485,113.589 188.697,112.947 189.976 C 112.130 191.605,112.052 193.581,112.760 194.697 C 113.465 195.809,113.859 197.761,113.378 197.761 C 112.834 197.761,112.924 198.762,113.523 199.360 C 114.208 200.045,114.202 201.550,113.514 201.550 C 112.726 201.550,112.317 203.024,112.317 205.860 C 112.317 207.942,112.202 208.483,111.679 208.852 C 111.309 209.114,111.099 209.591,111.179 209.991 C 111.254 210.370,111.386 212.280,111.472 214.234 C 111.557 216.188,111.783 218.077,111.972 218.432 C 112.162 218.786,112.317 219.993,112.317 221.114 C 112.317 222.807,112.491 223.409,113.344 224.668 C 113.909 225.502,114.374 226.543,114.378 226.982 C 114.381 227.421,114.539 228.070,114.729 228.425 C 115.021 228.971,115.821 233.524,115.864 234.884 C 115.871 235.121,115.956 235.235,116.053 235.139 C 116.356 234.835,117.829 236.440,117.829 237.075 C 117.829 237.408,118.012 238.118,118.235 238.651 C 118.458 239.185,118.652 240.086,118.666 240.655 C 118.687 241.551,118.819 241.688,119.656 241.688 C 120.271 241.688,120.848 241.988,121.245 242.513 C 121.725 243.146,122.070 243.287,122.740 243.118 C 123.423 242.947,123.731 243.083,124.167 243.749 C 124.473 244.216,125.224 244.728,125.836 244.886 C 126.707 245.112,127.025 245.434,127.299 246.369 C 127.491 247.026,127.997 248.049,128.424 248.641 C 129.836 250.604,129.067 252.713,126.941 252.713 C 125.511 252.713,125.321 252.943,124.687 255.433 C 124.416 256.499,123.887 257.449,123.248 258.017 C 121.983 259.141,121.124 260.815,120.640 263.095 C 120.434 264.067,119.944 265.408,119.551 266.074 C 118.979 267.043,118.814 268.002,118.722 270.878 C 118.659 272.854,118.428 274.805,118.210 275.213 C 117.991 275.622,117.916 276.368,118.044 276.877 C 118.212 277.546,118.112 277.919,117.678 278.236 C 114.797 280.342,116.666 287.339,120.109 287.339 C 121.632 287.339,121.938 287.432,123.859 288.480 C 124.427 288.790,125.515 289.337,126.275 289.694 C 127.036 290.052,127.877 290.609,128.145 290.932 C 128.413 291.254,129.108 291.762,129.691 292.060 C 130.273 292.357,131.314 293.045,132.005 293.587 C 133.490 294.754,134.128 294.812,135.307 293.885 C 136.487 292.956,136.686 293.008,136.949 294.315 C 137.373 296.422,137.444 296.519,138.591 296.564 C 139.205 296.588,140.017 296.630,140.396 296.658 C 140.775 296.685,141.428 296.599,141.847 296.465 C 142.465 296.269,142.933 296.555,144.323 297.982 C 146.563 300.283,148.601 300.437,152.545 298.605 C 153.194 298.303,153.482 298.390,154.268 299.126 C 154.787 299.611,155.556 300.113,155.977 300.240 C 156.398 300.367,157.519 301.005,158.467 301.657 C 160.347 302.950,161.485 303.159,161.825 302.273 C 161.945 301.960,162.612 301.191,163.306 300.563 L 164.569 299.422 164.595 294.421 C 164.618 289.973,164.701 289.291,165.342 288.252 C 165.739 287.610,166.064 286.856,166.064 286.576 C 166.064 286.296,166.374 285.787,166.753 285.444 C 167.155 285.080,167.442 284.382,167.442 283.770 C 167.442 283.082,167.787 282.359,168.443 281.670 C 168.994 281.093,170.000 279.565,170.678 278.274 C 171.357 276.984,172.135 275.705,172.408 275.432 C 172.681 275.159,173.014 274.063,173.147 272.997 C 173.328 271.547,173.546 271.017,174.009 270.895 C 174.494 270.769,174.615 270.422,174.567 269.303 C 174.502 267.820,174.486 267.831,176.135 268.298 C 176.546 268.414,176.838 268.186,177.074 267.567 C 177.339 266.870,177.652 266.667,178.458 266.667 C 179.404 266.667,179.683 266.366,179.529 265.511 C 179.412 264.861,180.293 264.268,181.082 264.466 C 181.727 264.628,181.980 264.483,182.305 263.769 C 182.537 263.261,183.749 262.230,185.080 261.409 C 187.149 260.132,187.486 259.778,187.777 258.571 C 187.960 257.813,188.247 256.778,188.416 256.272 C 188.951 254.665,186.939 253.223,184.509 253.474 C 182.961 253.634,182.619 253.790,182.533 254.375 C 182.472 254.790,181.573 255.665,180.362 256.490 C 179.017 257.405,178.255 258.171,178.182 258.685 C 178.061 259.527,178.033 259.545,175.797 260.117 C 174.617 260.419,174.204 260.744,173.668 261.795 C 173.302 262.512,172.304 263.671,171.450 264.371 C 170.596 265.071,169.787 265.990,169.653 266.414 C 169.519 266.837,169.161 267.564,168.857 268.029 C 168.186 269.056,167.454 271.088,167.447 271.945 C 167.444 272.291,167.209 272.805,166.925 273.090 C 166.641 273.374,166.408 274.187,166.408 274.896 C 166.408 276.012,166.257 276.258,165.289 276.720 C 164.238 277.221,164.162 277.378,164.059 279.269 C 163.957 281.142,163.257 283.034,162.446 283.630 C 162.257 283.769,162.233 283.885,162.393 283.888 C 162.553 283.891,162.204 284.744,161.618 285.783 C 160.869 287.110,160.551 288.129,160.551 289.205 C 160.551 290.262,160.212 291.380,159.456 292.809 L 158.362 294.882 157.300 293.953 C 156.716 293.441,155.620 292.772,154.863 292.464 C 150.840 290.827,149.492 290.404,148.899 290.592 C 148.510 290.715,147.634 290.449,146.733 289.934 C 145.901 289.459,144.832 289.063,144.358 289.055 C 143.305 289.036,140.815 287.562,141.172 287.168 C 141.314 287.011,141.249 286.987,141.027 287.114 C 140.805 287.241,140.397 287.118,140.120 286.841 C 139.844 286.564,139.546 286.409,139.460 286.495 C 139.156 286.798,136.943 285.859,136.080 285.061 C 135.601 284.618,134.714 284.083,134.110 283.872 C 133.269 283.579,132.819 283.068,132.185 281.683 C 131.496 280.177,131.034 279.693,129.405 278.775 C 127.140 277.496,126.490 276.468,127.167 275.237 C 127.415 274.787,127.656 273.899,127.702 273.265 C 127.748 272.630,128.026 271.744,128.320 271.296 C 128.614 270.848,128.854 269.943,128.854 269.286 C 128.854 268.373,129.080 267.931,129.814 267.408 C 130.450 266.956,131.036 265.981,131.552 264.520 C 131.980 263.307,132.879 261.549,133.548 260.614 C 134.218 259.680,135.380 257.868,136.132 256.589 C 136.883 255.310,137.650 254.264,137.835 254.264 C 138.020 254.264,138.350 253.872,138.568 253.394 C 138.786 252.915,139.519 252.188,140.197 251.777 C 141.957 250.709,143.481 249.342,144.873 247.582 C 145.251 247.104,146.152 246.446,146.877 246.119 C 148.027 245.600,150.935 242.377,151.452 241.049 C 151.647 240.547,154.150 239.104,154.825 239.104 C 155.107 239.104,155.433 238.803,155.550 238.434 C 155.764 237.759,158.964 234.660,160.455 233.682 C 161.375 233.079,162.618 233.826,162.618 234.981 C 162.618 235.875,163.368 236.325,165.237 236.555 C 166.166 236.669,167.345 237.057,167.859 237.416 C 168.372 237.776,169.028 238.071,169.316 238.071 C 170.453 238.071,172.535 239.182,172.900 239.984 C 173.369 241.013,174.427 241.077,175.066 240.115 C 175.702 239.158,176.271 239.459,178.075 241.709 C 179.501 243.487,180.564 244.026,181.060 243.224 C 181.187 243.018,181.843 243.498,182.589 244.343 C 183.930 245.860,186.396 247.028,188.258 247.028 C 188.759 247.028,189.901 247.398,190.795 247.849 C 193.238 249.082,198.073 249.464,198.340 248.444 C 198.605 247.430,199.153 247.532,200.899 248.920 C 202.720 250.367,204.170 250.479,207.318 249.416 C 208.932 248.871,209.592 248.790,210.119 249.072 C 211.143 249.620,212.535 249.521,214.643 248.751 C 217.850 247.579,221.705 247.761,222.175 249.107 C 222.423 249.820,222.941 250.321,223.801 250.680 C 227.283 252.135,228.898 253.939,228.083 255.462 C 227.570 256.421,228.957 259.027,231.125 261.178 C 232.627 262.668,234.281 265.926,234.281 267.395 C 234.281 267.686,234.823 268.687,235.487 269.620 C 236.150 270.552,236.693 271.484,236.693 271.689 C 236.693 273.159,238.278 276.960,239.314 277.972 C 239.957 278.600,240.482 279.292,240.482 279.511 C 240.482 281.776,242.462 283.644,243.993 282.824 C 245.306 282.122,244.349 275.071,242.890 274.690 C 242.026 274.464,242.032 274.325,242.939 273.590 L 243.674 272.995 242.595 271.767 C 242.001 271.091,241.516 270.432,241.516 270.304 C 241.516 270.175,240.953 268.915,240.265 267.505 C 239.190 265.299,239.043 264.712,239.212 263.306 C 239.503 260.889,238.549 256.328,237.574 255.469 C 237.143 255.090,236.618 254.070,236.407 253.202 C 236.195 252.334,235.798 251.190,235.524 250.661 C 234.859 249.380,235.079 248.955,237.033 247.753 C 238.644 246.761,240.482 243.913,240.482 242.407 C 240.482 242.116,240.947 241.638,241.516 241.344 C 242.266 240.956,242.556 240.552,242.574 239.871 C 242.607 238.573,242.897 237.971,244.147 236.602 C 245.402 235.228,246.681 232.525,246.692 231.222 C 246.704 229.724,247.828 228.548,248.805 229.010 C 249.975 229.563,254.531 233.838,254.777 234.615 C 255.022 235.388,257.812 237.037,258.874 237.037 C 259.416 237.037,259.807 237.472,260.371 238.700 C 260.824 239.688,261.488 240.524,262.008 240.761 C 262.489 240.980,263.142 241.704,263.460 242.371 C 263.824 243.134,264.282 243.583,264.697 243.583 C 265.060 243.583,265.785 244.009,266.309 244.531 C 266.833 245.052,268.161 246.253,269.261 247.201 C 270.360 248.148,271.781 249.737,272.419 250.732 C 273.057 251.727,273.729 252.541,273.912 252.541 C 274.096 252.541,274.246 252.840,274.246 253.205 C 274.246 253.571,274.518 254.139,274.849 254.467 C 275.181 254.796,275.762 255.559,276.141 256.164 C 277.622 258.527,279.049 260.676,279.685 261.499 C 280.781 262.917,281.869 265.285,281.614 265.698 C 281.468 265.933,281.531 265.988,281.773 265.838 C 282.008 265.693,282.171 265.811,282.171 266.130 C 282.171 266.937,282.164 266.912,282.702 268.200 C 282.978 268.860,283.204 269.796,283.204 270.280 C 283.204 270.763,283.669 272.030,284.238 273.095 C 285.885 276.183,285.366 277.346,281.447 279.354 C 276.596 281.840,274.246 283.757,274.246 285.229 C 274.246 286.660,273.643 287.021,272.128 286.499 C 270.657 285.992,269.985 286.262,269.267 287.652 C 268.609 288.924,266.850 289.686,265.917 289.103 C 265.231 288.675,263.910 288.871,263.910 289.402 C 263.910 289.564,263.368 289.876,262.706 290.094 C 262.043 290.313,261.307 290.751,261.069 291.069 C 260.633 291.651,260.378 291.730,257.881 292.064 C 257.123 292.165,256.209 292.453,255.850 292.703 C 255.467 292.970,254.782 293.075,254.195 292.958 C 253.423 292.803,252.980 292.958,252.264 293.634 C 251.137 294.696,249.436 295.426,247.362 295.737 C 246.509 295.865,245.349 296.275,244.784 296.648 C 244.218 297.020,243.290 297.329,242.722 297.333 C 241.343 297.343,241.168 297.495,239.627 300.012 C 238.235 302.287,238.250 302.524,239.829 303.313 C 240.259 303.528,240.737 304.188,240.890 304.780 C 241.403 306.761,245.364 307.197,247.326 305.488 C 247.636 305.218,248.632 304.918,249.540 304.822 C 250.448 304.725,251.468 304.396,251.807 304.089 C 252.172 303.759,253.022 303.531,253.893 303.531 C 255.263 303.531,256.636 302.876,257.964 301.590 C 258.199 301.362,258.896 301.066,259.514 300.931 C 260.132 300.796,261.076 300.318,261.611 299.869 C 262.147 299.420,262.951 299.053,263.398 299.053 C 264.648 299.053,266.046 298.420,267.183 297.340 C 267.752 296.801,268.779 296.208,269.467 296.023 C 270.258 295.810,271.502 294.913,272.856 293.580 C 274.033 292.421,275.191 291.473,275.429 291.473 C 276.009 291.473,278.035 290.450,278.040 290.156 C 278.044 289.924,279.646 289.146,281.692 288.383 C 282.282 288.163,283.278 287.299,283.905 286.462 C 286.390 283.144,288.441 282.503,289.401 284.744 C 290.417 287.114,293.124 287.383,292.953 285.097 C 292.889 284.239,292.967 284.175,293.857 284.353 C 295.307 284.643,297.406 281.867,297.135 280.017 C 297.086 279.685,297.158 279.414,297.295 279.414 C 297.657 279.414,297.407 275.723,296.992 274.948 C 296.498 274.025,296.554 273.348,297.176 272.727 C 297.471 272.432,297.772 271.878,297.846 271.495 C 297.920 271.112,298.073 270.647,298.188 270.462 C 298.564 269.854,297.739 268.868,296.317 268.226 C 294.817 267.550,294.636 267.082,295.408 265.879 C 296.041 264.893,295.446 263.027,293.574 260.131 C 292.855 259.019,292.065 257.387,291.818 256.505 C 291.526 255.463,291.055 254.701,290.473 254.331 C 289.350 253.618,289.075 253.236,289.059 252.369 C 289.032 250.929,285.464 244.883,282.855 241.858 C 282.005 240.872,281.232 239.958,281.137 239.827 C 281.042 239.696,280.073 239.158,278.984 238.632 C 277.894 238.106,277.003 237.469,277.003 237.217 C 277.003 236.133,278.683 233.740,280.276 232.554 C 282.879 230.616,283.340 230.010,282.829 229.191 C 282.293 228.334,282.640 227.390,283.491 227.390 C 284.489 227.390,285.821 226.171,286.403 224.727 C 286.691 224.012,287.329 223.052,287.821 222.593 C 288.314 222.133,288.717 221.579,288.717 221.361 C 288.717 221.143,289.105 220.599,289.580 220.153 C 290.869 218.942,292.385 213.207,291.813 211.703 C 291.135 209.920,291.412 207.687,292.513 206.064 C 293.302 204.899,293.547 204.141,293.569 202.791 C 293.633 198.969,293.461 197.288,292.861 195.889 C 292.517 195.085,292.161 193.258,292.071 191.828 C 291.981 190.398,291.816 189.080,291.705 188.899 C 291.593 188.719,291.470 187.964,291.430 187.223 C 291.342 185.589,290.926 184.668,290.275 184.668 C 289.390 184.668,287.797 177.066,288.367 175.557 C 288.531 175.122,288.444 174.477,288.141 173.885 C 287.869 173.354,287.734 172.646,287.841 172.311 C 287.947 171.977,287.877 170.877,287.686 169.867 C 287.446 168.604,287.450 167.895,287.697 167.597 C 287.895 167.358,287.958 166.767,287.836 166.283 C 287.679 165.657,287.848 165.077,288.424 164.269 C 289.106 163.313,289.236 162.702,289.251 160.379 C 289.263 158.587,289.467 157.191,289.835 156.388 C 290.146 155.708,290.558 153.925,290.750 152.426 C 291.285 148.244,291.496 147.482,292.268 146.941 C 292.858 146.528,293.017 145.946,293.185 143.591 C 293.397 140.620,293.905 139.190,294.751 139.190 C 295.025 139.190,295.576 138.548,295.976 137.764 C 296.377 136.979,296.987 136.034,297.332 135.663 C 297.677 135.293,298.304 134.068,298.725 132.942 C 299.146 131.816,299.758 130.552,300.084 130.133 C 300.924 129.053,303.531 124.384,303.531 123.960 C 303.531 123.765,304.163 122.974,304.935 122.202 C 305.706 121.430,306.581 120.325,306.877 119.745 C 307.174 119.165,307.860 118.182,308.403 117.559 C 308.945 116.937,309.388 116.214,309.388 115.954 C 309.388 115.694,309.931 114.476,310.594 113.248 C 311.258 112.021,311.803 110.650,311.805 110.202 C 311.818 108.205,313.209 108.154,315.708 110.059 C 317.169 111.174,320.110 111.289,321.418 110.284 L 322.251 109.644 321.504 109.407 C 320.698 109.151,320.667 109.051,320.747 106.969 C 320.810 105.341,320.405 104.160,319.434 103.137 C 319.048 102.731,318.839 102.280,318.970 102.135 C 319.101 101.989,319.026 101.974,318.805 102.101 C 318.280 102.402,317.069 100.850,316.654 99.346 C 316.275 97.976,315.060 96.841,313.953 96.825 C 313.075 96.812,312.990 96.298,313.541 94.315 C 313.930 92.914,314.779 92.606,315.703 93.530 C 316.430 94.257,316.892 93.575,317.234 91.272 C 317.502 89.470,317.547 89.408,318.532 89.486 C 319.431 89.557,320.857 89.105,322.481 88.235 C 322.785 88.071,323.068 87.275,323.170 86.297 C 323.357 84.494,323.717 84.151,324.682 84.856 C 325.223 85.252,325.439 85.186,326.331 84.354 C 327.435 83.322,327.369 82.826,326.065 82.330 C 325.492 82.112,325.237 81.747,325.237 81.145 C 325.237 80.215,324.670 80.061,323.290 80.618 M206.748 87.141 C 206.480 87.310,205.756 87.367,205.138 87.267 C 204.278 87.127,203.547 87.355,202.008 88.241 C 200.374 89.181,199.507 89.434,197.358 89.596 C 195.448 89.741,194.221 90.052,192.933 90.720 C 191.953 91.229,190.936 91.645,190.672 91.645 C 190.409 91.645,190.096 92.034,189.977 92.509 C 189.773 93.324,189.412 93.518,187.597 93.788 C 187.113 93.860,186.878 94.197,186.807 94.921 C 186.621 96.818,186.452 96.991,185.585 96.176 C 184.585 95.236,184.153 95.243,183.476 96.210 C 183.177 96.637,182.432 97.153,181.820 97.359 C 181.029 97.624,180.678 97.973,180.610 98.565 C 180.340 100.893,180.291 100.948,178.686 100.728 L 177.192 100.523 176.989 101.772 C 176.878 102.459,176.467 103.470,176.076 104.019 C 174.940 105.614,175.885 107.838,177.698 107.838 C 177.880 107.838,178.443 108.164,178.949 108.561 C 180.293 109.619,181.313 109.221,182.343 107.238 C 182.847 106.268,183.601 105.404,184.190 105.123 C 184.737 104.862,185.537 104.328,185.968 103.937 C 186.398 103.545,186.998 103.189,187.302 103.144 C 187.605 103.100,188.260 102.682,188.758 102.216 C 189.257 101.751,190.052 101.255,190.525 101.116 C 191.764 100.752,192.175 100.341,192.421 99.220 C 192.633 98.257,192.687 98.235,194.319 98.428 C 195.657 98.587,196.251 98.478,197.244 97.892 C 197.929 97.488,198.953 97.158,199.521 97.158 C 200.346 97.158,200.621 96.961,200.896 96.172 C 201.214 95.262,201.377 95.185,203.032 95.167 C 205.218 95.143,205.801 95.020,206.508 94.433 C 207.978 93.213,212.399 95.670,211.755 97.349 C 211.649 97.623,211.739 97.847,211.955 97.847 C 212.170 97.847,212.245 97.947,212.122 98.070 C 211.999 98.193,212.271 99.007,212.726 99.879 C 213.413 101.195,213.589 102.166,213.764 105.599 C 213.980 109.840,214.526 111.475,215.713 111.442 C 216.473 111.422,218.278 110.343,218.088 110.023 C 217.993 109.863,218.303 109.681,218.777 109.618 C 220.135 109.436,220.322 109.019,220.402 106.011 C 220.544 100.688,220.474 99.819,219.779 98.294 C 219.398 97.459,219.174 96.503,219.279 96.169 C 219.385 95.836,219.083 94.798,218.609 93.863 C 218.134 92.927,217.746 91.960,217.745 91.714 C 217.744 91.467,217.195 91.036,216.525 90.756 C 215.855 90.477,215.169 89.885,215.001 89.443 C 214.609 88.413,213.997 88.187,210.940 87.950 C 209.474 87.836,208.283 87.563,208.055 87.289 C 207.603 86.744,207.409 86.722,206.748 87.141 M229.630 109.616 C 228.872 110.008,227.909 110.643,227.490 111.026 C 226.894 111.571,226.427 111.682,225.337 111.536 C 224.571 111.433,223.945 111.461,223.945 111.597 C 223.945 111.734,223.337 112.187,222.593 112.605 C 221.850 113.023,221.191 113.516,221.129 113.701 C 221.067 113.886,219.896 114.178,218.527 114.350 C 217.077 114.532,215.810 114.891,215.490 115.210 C 215.115 115.586,214.372 115.745,213.129 115.716 C 211.147 115.670,210.187 116.044,208.613 117.472 C 206.953 118.978,205.619 119.369,204.359 118.718 C 202.933 117.980,201.477 118.034,200.423 118.863 C 199.289 119.755,198.450 119.750,198.450 118.852 C 198.450 117.094,195.262 118.003,194.889 119.868 C 194.743 120.601,194.477 120.930,194.032 120.930 C 193.677 120.930,193.032 121.238,192.599 121.614 C 191.696 122.397,190.332 122.251,189.492 121.282 C 188.554 120.200,184.870 120.263,182.655 121.399 C 181.372 122.057,179.567 122.677,177.950 123.014 C 174.322 123.772,173.242 124.042,171.363 124.662 C 170.248 125.030,168.594 125.436,167.686 125.565 C 162.922 126.243,161.053 132.276,164.559 135.659 C 166.573 137.603,168.154 137.507,170.256 135.314 C 171.064 134.470,171.278 134.403,172.039 134.750 C 172.761 135.078,173.100 135.022,174.089 134.411 C 174.742 134.008,175.587 133.678,175.967 133.678 C 176.689 133.678,177.322 133.087,177.945 131.832 C 178.429 130.859,179.406 130.760,180.847 131.540 C 182.018 132.174,184.668 131.934,184.668 131.195 C 184.668 131.045,185.178 130.922,185.801 130.922 C 186.425 130.922,187.549 130.606,188.299 130.220 C 189.050 129.834,189.966 129.595,190.335 129.689 C 190.704 129.782,191.169 129.727,191.369 129.566 C 191.568 129.404,193.282 129.107,195.177 128.904 C 198.790 128.519,199.731 127.988,200.384 125.964 C 200.574 125.375,200.848 125.333,203.280 125.520 C 205.305 125.676,206.061 125.614,206.349 125.267 C 206.559 125.014,207.469 124.736,208.370 124.649 C 209.490 124.541,210.487 124.145,211.516 123.400 C 212.345 122.800,213.238 122.308,213.499 122.308 C 213.761 122.308,214.552 122.057,215.257 121.749 C 215.961 121.441,217.258 121.169,218.138 121.145 C 219.128 121.118,219.994 120.871,220.405 120.499 C 220.771 120.168,221.308 119.897,221.599 119.897 C 221.890 119.897,222.667 119.468,223.327 118.944 C 224.416 118.078,226.639 117.236,230.800 116.113 C 233.324 115.432,235.621 113.009,234.854 111.838 C 234.395 111.137,234.344 110.775,234.631 110.239 C 235.456 108.697,232.190 108.290,229.630 109.616 M324.203 114.232 C 324.203 114.505,324.048 114.729,323.859 114.729 C 323.669 114.729,323.514 114.409,323.514 114.019 C 323.514 113.629,323.669 113.406,323.859 113.523 C 324.048 113.640,324.203 113.959,324.203 114.232 M223.084 135.968 C 220.266 136.555,219.425 136.950,218.282 138.224 C 217.607 138.976,217.054 139.781,217.054 140.014 C 217.054 140.246,216.827 140.738,216.548 141.106 C 216.270 141.473,216.038 142.134,216.032 142.573 C 216.022 143.301,214.485 145.749,213.865 146.024 C 213.722 146.088,213.698 146.291,213.813 146.477 C 213.927 146.662,213.792 147.075,213.512 147.395 C 213.232 147.714,212.730 148.519,212.397 149.182 C 212.063 149.845,211.618 150.502,211.408 150.641 C 211.197 150.780,211.149 150.896,211.301 150.899 C 211.453 150.902,211.089 151.796,210.491 152.885 C 209.893 153.975,209.458 154.892,209.525 154.924 C 209.784 155.046,208.055 157.106,207.693 157.106 C 207.483 157.106,207.089 156.835,206.817 156.503 C 206.523 156.145,206.427 156.110,206.580 156.417 C 206.754 156.767,206.599 156.725,206.097 156.285 C 205.690 155.928,205.450 155.484,205.565 155.299 C 205.864 154.814,204.939 154.329,204.170 154.569 C 203.638 154.735,203.552 154.637,203.707 154.044 C 203.812 153.643,203.757 153.402,203.585 153.508 C 203.414 153.614,203.273 153.495,203.273 153.243 C 203.273 152.990,202.831 152.245,202.290 151.586 C 201.749 150.927,201.047 149.884,200.730 149.268 C 200.414 148.652,199.385 147.574,198.444 146.871 C 197.395 146.088,196.593 145.168,196.370 144.493 C 195.840 142.888,194.519 141.604,193.384 141.591 C 192.854 141.585,192.119 141.353,191.752 141.074 C 190.202 139.902,186.736 140.877,186.736 142.485 C 186.736 142.710,186.646 143.343,186.536 143.891 C 186.383 144.656,186.541 145.108,187.212 145.833 C 188.016 146.700,188.071 146.955,187.883 148.962 L 187.679 151.148 188.990 152.146 C 189.711 152.695,191.443 154.204,192.840 155.501 C 194.411 156.959,195.570 157.784,195.881 157.665 C 197.049 157.216,199.633 159.628,199.084 160.654 C 198.660 161.445,200.063 163.119,201.439 163.464 C 202.584 163.752,202.353 164.694,201.021 165.172 C 199.768 165.621,198.555 166.474,196.663 168.235 C 195.889 168.955,194.501 169.927,193.578 170.395 C 192.656 170.862,191.710 171.552,191.475 171.927 C 191.241 172.303,190.758 172.610,190.402 172.610 C 190.046 172.610,189.246 173.057,188.624 173.603 C 187.601 174.501,187.349 174.571,186.005 174.325 C 184.712 174.088,184.390 174.161,183.533 174.882 C 182.992 175.338,182.339 175.711,182.083 175.711 C 180.764 175.711,180.033 178.266,180.892 179.871 C 181.191 180.429,181.112 180.593,180.423 180.855 C 179.967 181.029,179.502 181.410,179.390 181.703 C 179.278 181.995,178.603 182.478,177.892 182.776 C 176.149 183.504,175.366 184.268,175.366 185.239 C 175.366 185.832,175.172 186.047,174.637 186.047 C 173.818 186.047,173.770 185.764,175.334 190.147 C 176.655 193.851,176.607 193.811,179.106 193.319 C 181.886 192.772,183.162 192.078,183.577 190.886 C 183.769 190.338,184.247 189.717,184.641 189.506 C 185.174 189.221,185.357 188.787,185.357 187.810 C 185.357 186.337,185.922 185.662,187.818 184.870 C 189.126 184.323,190.004 183.255,190.382 181.748 C 190.721 180.395,191.425 180.322,192.444 181.533 C 193.525 182.818,193.552 182.820,195.111 181.762 C 195.832 181.273,196.806 180.937,197.449 180.955 C 198.062 180.972,198.721 180.757,198.932 180.471 C 199.525 179.664,203.370 176.546,204.497 175.958 C 205.056 175.666,205.968 174.949,206.524 174.363 C 207.081 173.778,207.786 173.299,208.092 173.299 C 208.398 173.299,208.830 173.116,209.053 172.894 C 209.364 172.583,209.607 172.623,210.097 173.066 C 211.012 173.894,211.197 173.793,211.197 172.466 C 211.197 170.767,211.507 170.198,212.431 170.198 C 213.312 170.198,214.298 171.648,214.298 172.942 C 214.298 174.024,216.088 174.905,218.834 175.176 C 220.168 175.307,221.470 175.496,221.728 175.595 C 222.371 175.841,223.738 174.287,224.199 172.782 C 224.781 170.887,224.008 169.812,221.489 169.007 C 220.386 168.654,219.142 168.003,218.725 167.559 C 218.309 167.116,217.723 166.754,217.425 166.756 C 214.632 166.771,212.616 163.969,214.314 162.432 C 215.236 161.597,216.710 158.645,216.710 157.633 C 216.710 156.168,217.851 155.165,218.948 155.665 C 220.393 156.323,221.110 155.866,222.269 153.549 C 222.854 152.379,223.558 151.166,223.832 150.854 C 224.829 149.722,225.979 145.809,225.260 145.997 C 224.220 146.270,224.505 144.947,225.960 142.746 C 228.947 138.231,227.588 135.030,223.084 135.968 M279.414 171.059 C 279.414 171.344,279.259 171.576,279.070 171.576 C 278.880 171.576,278.725 171.344,278.725 171.059 C 278.725 170.775,278.880 170.543,279.070 170.543 C 279.259 170.543,279.414 170.775,279.414 171.059 M184.690 177.976 C 185.064 178.426,185.056 178.573,184.646 178.832 C 183.857 179.332,183.635 179.214,183.635 178.295 C 183.635 177.309,184.036 177.188,184.690 177.976 M200.689 213.452 C 202.016 213.485,203.982 213.562,205.058 213.622 C 206.341 213.694,207.209 213.572,207.577 213.266 C 208.036 212.886,208.438 212.877,209.778 213.221 C 210.680 213.452,212.527 213.603,213.882 213.556 C 215.967 213.485,216.468 213.582,217.131 214.186 C 218.218 215.176,219.270 215.676,220.268 215.676 C 220.734 215.676,221.205 215.911,221.315 216.197 C 221.473 216.609,221.895 216.675,223.333 216.512 C 225.095 216.313,225.195 216.349,226.621 217.693 C 227.430 218.455,228.399 219.176,228.774 219.296 C 229.150 219.415,229.457 219.646,229.457 219.809 C 229.457 220.219,232.917 221.189,234.381 221.189 C 235.610 221.189,238.639 222.937,239.879 224.362 C 240.211 224.743,240.482 224.956,240.482 224.836 C 240.482 224.508,242.362 225.543,242.863 226.147 C 243.157 226.501,243.626 226.606,244.302 226.471 C 245.797 226.172,245.290 228.221,243.504 229.699 C 243.074 230.055,242.551 230.650,242.342 231.022 C 242.133 231.393,241.629 231.746,241.222 231.807 C 240.815 231.867,240.482 232.119,240.482 232.366 C 240.482 232.613,239.861 233.494,239.102 234.323 C 238.342 235.153,237.626 236.141,237.510 236.520 C 237.395 236.899,237.107 237.442,236.870 237.726 C 236.634 238.010,236.339 238.669,236.215 239.190 C 236.052 239.880,235.777 240.138,235.208 240.138 C 234.778 240.138,233.818 240.448,233.075 240.827 C 231.387 241.687,231.161 241.685,229.636 240.785 C 228.490 240.109,228.352 240.096,227.781 240.613 C 227.441 240.920,226.628 241.171,225.974 241.171 C 224.970 241.171,224.774 241.299,224.716 241.991 C 224.579 243.651,223.978 244.706,223.337 244.414 C 221.418 243.539,218.889 243.838,217.640 245.088 L 216.422 246.305 215.830 245.401 C 215.297 244.589,215.196 244.555,214.823 245.064 C 214.276 245.812,211.164 245.485,210.108 244.568 C 209.547 244.082,208.817 243.928,207.070 243.928 C 205.045 243.928,204.672 243.822,203.938 243.040 C 203.306 242.368,202.877 242.198,202.169 242.340 C 201.655 242.442,200.664 242.288,199.967 241.997 C 198.641 241.443,194.015 240.483,191.843 240.312 C 191.147 240.257,190.061 239.827,189.431 239.356 C 188.801 238.886,187.721 238.400,187.030 238.277 C 186.340 238.154,185.183 237.583,184.461 237.009 C 183.525 236.265,182.918 236.022,182.352 236.164 C 181.734 236.319,181.487 236.182,181.246 235.548 C 180.700 234.110,179.952 233.618,178.639 233.831 C 177.937 233.945,177.236 233.857,176.948 233.618 C 176.678 233.394,176.018 233.180,175.481 233.142 C 174.750 233.091,174.375 232.794,173.988 231.962 C 173.514 230.942,173.337 230.850,171.851 230.843 C 169.906 230.834,168.670 230.323,167.956 229.232 C 167.664 228.787,167.158 228.423,166.831 228.422 C 166.162 228.420,167.990 226.736,168.686 226.714 C 168.896 226.707,170.280 225.693,171.762 224.462 C 173.243 223.230,174.611 222.222,174.802 222.222 C 174.993 222.222,175.521 221.873,175.975 221.447 C 176.493 220.961,177.273 220.656,178.065 220.630 C 179.526 220.582,182.601 219.529,182.601 219.078 C 182.601 218.909,183.221 218.523,183.979 218.220 C 184.737 217.917,185.357 217.546,185.357 217.395 C 185.357 216.938,187.756 215.676,188.626 215.676 C 189.075 215.676,189.659 215.460,189.923 215.196 C 190.197 214.921,190.782 214.787,191.284 214.883 C 191.925 215.006,192.310 214.843,192.703 214.282 C 193.155 213.637,193.464 213.543,194.626 213.699 C 195.605 213.830,196.134 213.736,196.431 213.378 C 196.708 213.045,197.094 212.961,197.564 213.132 C 197.956 213.274,199.363 213.418,200.689 213.452 M165.978 227.304 C 166.147 227.813,165.549 228.124,164.889 227.871 C 164.042 227.546,164.214 226.686,165.098 226.821 C 165.514 226.885,165.910 227.102,165.978 227.304 M294.057 299.053 C 294.753 299.514,295.674 299.738,296.879 299.739 C 297.863 299.741,298.763 299.897,298.880 300.086 C 298.997 300.276,299.549 300.431,300.106 300.431 C 300.935 300.431,301.120 300.576,301.120 301.226 C 301.120 302.483,301.864 303.190,303.880 303.847 C 305.960 304.525,305.659 303.972,307.545 310.594 C 307.869 311.731,308.416 313.031,308.761 313.483 C 309.219 314.083,309.391 314.919,309.397 316.584 C 309.401 317.837,309.536 319.426,309.696 320.114 C 309.864 320.837,309.836 322.775,309.630 324.711 L 309.274 328.057 307.941 328.898 C 306.649 329.714,306.572 329.722,305.500 329.162 C 304.162 328.464,303.710 328.200,302.175 327.224 C 301.455 326.766,300.566 326.508,299.907 326.564 C 298.827 326.658,295.431 324.911,294.815 323.946 C 294.380 323.264,292.634 322.481,291.550 322.481 C 290.461 322.481,289.479 321.596,288.568 319.796 C 288.066 318.802,286.941 317.425,283.655 313.780 C 283.184 313.259,282.408 312.734,281.931 312.614 C 281.314 312.459,280.824 311.885,280.242 310.634 L 279.423 308.872 280.194 308.754 C 281.819 308.507,283.204 307.052,283.204 305.593 C 283.204 304.070,283.655 303.688,285.865 303.334 C 287.090 303.139,287.267 302.983,287.545 301.859 C 288.098 299.619,292.226 297.840,294.057 299.053 M279.414 303.876 C 279.414 304.255,279.259 304.565,279.070 304.565 C 278.880 304.565,278.725 304.255,278.725 303.876 C 278.725 303.497,278.880 303.187,279.070 303.187 C 279.259 303.187,279.414 303.497,279.414 303.876 " stroke="none" fill="#000000" fill-rule="evenodd"></path></g></svg>